<?xml version="1.0" encoding="utf-8"?>
<!-- Generator: Adobe Illustrator 22.0.1, SVG Export Plug-In . SVG Version: 6.00 Build 0)  -->
<svg version="1.1" id="图层_1" xmlns="http://www.w3.org/2000/svg" xmlns:xlink="http://www.w3.org/1999/xlink" x="0px" y="0px"
	 viewBox="0 0 512 841.9" style="enable-background:new 0 0 512 841.9;" xml:space="preserve">
<style type="text/css">
	.st0{fill:none;stroke:#AE6DAA;stroke-miterlimit:10;}
	.st1{fill:none;stroke:#3ABBCC;stroke-miterlimit:10;}
	.st2{fill:none;stroke:#2B9E8A;stroke-miterlimit:10;}
	.st3{fill:none;stroke:#2792B1;stroke-miterlimit:10;}
</style>
<path class="st0" d="M-43,438.8h462.6l6.1-133.7c0,0,2.2-62.1,19.1-77.2c21.3-13.5,79.8-33,79.8-33l21.7,61.6l0.9,90.3l12.2,63.4
	H594v94.6c0,0-1.3,47.3-41.2,87.2c-39.9,39.9-98.5,40.4-98.5,40.4V648H-80.3V506.5H-43V438.8z"/>
<path class="st1" d="M454.7,346.4h93.7l29.5,144.9h-5.2c0,0,0,47.7-33,82.4c-33,34.7-85.1,36.5-85.1,36.5v10.4H-82.5V505.2l39.5,0
	v-29.7l446.5,0.2l17.4,16.5l34.7-35.6L454.7,346.4z"/>
<path class="st2" d="M455,346.6l93.7,0.2l29.2,145l-5.2,0c0,0-0.1,47.7-33.1,82.4c-33,34.7-85.1,36.3-85.1,36.3l0,10.4l-288.1-0.6
	l0.1-38.2l0.9,0l0.1-60.8l-2.2,0l0.1-46.2l238.2,0.7l17.3,16.5l34.8-35.5L455,346.6z"/>
<path class="st3" d="M492,346.4h56.4l29.5,144.9h-5.2c0,0,0,47.7-33,82.4c-33,34.7-85.1,36.5-85.1,36.5v10.4H166.6v-38.2h0.9v-60.8
	v-3.5h85.9h168.4l71.2-68.6L492,346.4z"/>
</svg>
